<svg xmlns="http://www.w3.org/2000/svg" viewBox="0 0 1717.59996 151.8"><defs><style>.a{fill:#4254f4;}.b{fill:#fff;}</style></defs><path class="a" d="M45.3,120.9c0,18.8-8.6,30.3-27.6,30.3A62.36424,62.36424,0,0,1,0,148.9L2.3,133a48.13738,48.13738,0,0,0,11.3,1.6c5.1,0,8.7-4,8.7-14.5V38.6H45.4l-.1,82.3ZM22.2,6.3H45.5V26.1H22.2Z"/><path class="a" d="M55.2,67.6a36.79382,36.79382,0,0,1-.5-5.8C54.7,46.7,66.1,37,91,37c28,0,35.5,13.8,35.5,28.7v32c0,3.2,1.3,4.6,3.5,4.6a10.87852,10.87852,0,0,0,4-.7l.9,15.4a49.08976,49.08976,0,0,1-13.1,2.1c-11.8,0-14.3-6.6-14.6-12.6h-.9c-2.7,3.2-12.3,12.6-29.5,12.6-15.4,0-25.6-7-25.6-21.2,0-16.6,13.1-26.3,52.5-27.1V64.5c0-7-4.3-11.8-13.9-11.8s-14.4,3.2-14.4,9.9a29.98978,29.98978,0,0,0,.3,3.8Zm29.2,35.5a26.07433,26.07433,0,0,0,19.4-8.7V82.8c-23.6.5-30.3,5.4-30.3,12.1C73.7,100.6,77.4,103.1,84.4,103.1Z"/><path class="a" d="M175.9,37c33,0,36.3,19,36.3,27.5a29.66545,29.66545,0,0,1-.3,4.2l-23,.5a12.41187,12.41187,0,0,0,.3-2.7c0-4.7-2.5-12.9-13.9-12.9-10.7,0-17.2,6.2-17.2,24.7,0,15.8,5.8,24.3,17.2,24.3s13.9-8,13.9-12.9a10.07539,10.07539,0,0,0-.3-2.5l23,.3a29.661,29.661,0,0,1,.3,4.2c0,7.9-3.4,27.5-36.3,27.5-27.6,0-41.5-15-41.5-40.9C134.4,55.8,147,37,175.9,37Z"/><path class="a" d="M218.7,1.6h23.2V70.9c11.1-7.5,24.3-20,32-32.3h25.2v2.7c-8.2,12.3-20,24.1-27.6,30.7,4.2,5,24.9,39.1,29.2,42.6v2.7H275.8c-3.4-2.9-18-28.9-21.6-32.8-3.1,2.4-9.5,6.7-12.3,8.6v24.3H218.7Z"/><path class="a" d="M305.1,1.6h23.2V46h.9c3.9-4.6,11.3-9,22.2-9,17.2,0,33.6,11,33.6,40.9,0,29.6-15.9,41.1-33.6,41.1-13.9,0-20.9-6.3-24.7-10.3h-.9l-3.4,8.7h-17.4V1.6Zm23.2,94.1a18.3918,18.3918,0,0,0,14.6,6.7c10.7,0,18.5-5.8,18.5-24.7,0-19-8.2-24.3-18.5-24.3a20.187,20.187,0,0,0-14.6,7Z"/><path class="a" d="M429.9,37c27.6,0,41.5,16.2,41.5,41.1,0,24.8-13.8,40.9-41.5,40.9-28,0-41.5-16.1-41.5-40.9C388.4,53.2,402,37,429.9,37Zm17.9,41.1c0-18.4-7.1-24.7-17.8-24.7-11.1,0-18,6.3-18,24.7,0,18,7,24.3,18,24.3C440.7,102.4,447.8,96.2,447.8,78.1Z"/><path class="a" d="M467.8,115.1l28.1-37.5L468.4,40.9V38.5h24.7l9.6,14.2a103.25817,103.25817,0,0,1,7.5,12.9h1.1a102.88932,102.88932,0,0,1,7.8-12.7l9.8-14.3H553.4V41L525.5,77l28.3,38.1v2.3H529.3l-11-16.2a112.629,112.629,0,0,1-7.1-12.1h-1.1a94.18737,94.18737,0,0,1-7.2,12.3l-10.6,15.9H467.6l.2-2.2Z"/><path class="a" d="M562.6,92.6h26.7v24.8H562.6Z"/><path class="a" d="M601.9,52.9H587.6V38.6h14.3V28.4c0-17.7,9-28.4,29.2-28.4a65.49894,65.49894,0,0,1,20.1,3.2l-2.9,16.2a30.04754,30.04754,0,0,0-12.9-2.9c-5.8,0-10.5,2.9-10.5,11.9V38.6h23.6V52.9H624.9v64.5h-23.2C601.8,117.4,601.9,52.9,601.9,52.9Z"/><path class="a" d="M730,117.4H713l-3.1-11.5H709c-4.2,6.3-11.9,13.1-24.9,13.1-17.2,0-29.2-8.8-29.2-31.6V38.6h23.2V85.4c0,13.1,5,17,13.1,17a18.66915,18.66915,0,0,0,15.5-8.7V38.6h23.3v78.8Z"/><path class="a" d="M737.2,38.6h17l2.9,11.5h1.1A28.4899,28.4899,0,0,1,783,37c17.4,0,29.2,8.8,29.2,31.6v48.8H789V70.6c0-13.1-4.8-17-13.1-17-7,0-12.2,3.9-15.5,8.7v55.2H737.2Z"/><path class="b" d="M895.9,103,888,81.3c-3.5-9.6-4.1-13.7-4.1-13.7h-1.5s.6,4.1-1.19995,13.7l-7,36.5h-20.5l15.5-79.8h23.3l10.2,28.1c3.3,9.1,2.9,12.2,2.9,12.2h1.5s.8-3,7.8-12.2l21.1-28.1h24.5l-15.5,79.8h-20.5l7-36.5c1.80005-9.6,4.30005-13.7,4.30005-13.7h-1.5s-2.4,4.1-9.6,13.7l-16.4,21.7Z"/><path class="b" d="M1007.6,36.8c24,0,35.5,13.1,35.5,32.1,0,29.2-15.1,50.5-44.1,50.5-24.1,0-35.3-13-35.3-31.8C963.70006,58.3,978.20006,36.8,1007.6,36.8Zm11.6001,32c0-10.5-4.4-15.4-12-15.4-13,0-19.9,11.8-19.9,34,0,10.5,4.5,15.2,11.80005,15.2C1011.9,102.7,1019.20006,91.4,1019.20006,68.8Z"/><path class="b" d="M1071.70006,123.4a17.27079,17.27079,0,0,0-1.5,5.5c0,4.4,3.7,6.6,9.7,6.6,8.6,0,15.19995-4.7,17.69995-19.1l1.6-10h-.80005a28.0177,28.0177,0,0,1-20.6,8.6c-13,0-27.19995-7.5-27.19995-30.3,0-29.2,16.80005-48,39.69995-48,13.1,0,18.30005,8.1,20.6,11.7h1l5.2-10h17l-13.80005,78.1c-3.9,21.7-15.6,35.3-41.1,35.3-22,0-31.8-7.8-31.8-18.6a17.95213,17.95213,0,0,1,3.1-10.5Zm30.1-31.7,5.5-30a13.68789,13.68789,0,0,0-13-8.7c-11.7,0-19.6,13.4-19.6,30.3,0,11.7,6.30005,15.6,13,15.6C1092.1,98.8,1097.5,96.4,1101.8,91.7Z"/><path class="b" d="M1184,36.8c20.4,0,32.6,10.9,32.6,25.8A51.94037,51.94037,0,0,1,1212.9,80.9h-50.1A32.736,32.736,0,0,0,1162,88.5c0,9.9,4,14.7,12.2,14.7,8.3,0,15.6-3.7,15.6-12.8l21.4.3c0,19.6-17.2,28.7-37.4,28.7-23.5,0-34.5-11.8-34.5-30.8C1139.1,60.3,1152.70006,36.8,1184,36.8Zm10.20008,30.8a14.51352,14.51352,0,0,0,1-5.5c0-7.3-5.19995-10-11.69995-10-8.9,0-15.4,4.4-18.5,15.6h29.19995Z"/><path class="b" d="M1256.20006,52c4.4-7.8,10.7-15.2,24-15.2,13.4,0,26.7,9.1,26.7,30.1,0,38.2-21.9,52.5-39.2,52.5-9.69995,0-15.1-3.9-18.5-8.4h-1l-6.8,39.2H1218.1l16-89.6c.5-3.2.80005-7.1-3.69995-7.1a8.99188,8.99188,0,0,0-5.5,1.5l1.8-15.9a56.35079,56.35079,0,0,1,14.7-2.3c10.19995,0,14.3,5.7,14.3,11.7a21.855,21.855,0,0,1-.3,3.6ZM1251,96.4a12.802,12.802,0,0,0,11,6.3c10.4,0,20.9-9.7,20.9-34,0-9.9-4.5-15.2-11.80005-15.2-7,0-13.80005,7-15.9,19.1Z"/><path class="b" d="M1314.1,87.5c0-30,17.69995-50.7,37.9-50.7,13.30005,0,18.5,6.2,21.9,11.2h1l4.9-9.6h17.5l-10,56.7c-.5,2.4-1.80005,7.8,2.8,7.8a15.74361,15.74361,0,0,0,6-1.6l-2.3,15.7a60.97442,60.97442,0,0,1-15.2,2.4c-9.69995,0-13.4-3.9-14.3-10.9H1363.5c-4.4,3.9-11.69995,10.9-23.69995,10.9C1326.20006,119.4,1314.1,110.3,1314.1,87.5ZM1370,60.6c-1.8-3.7-5-7.1-10.9-7.1-9.9,0-20.30005,12-20.30005,33.4,0,11.8,5.30005,15.9,11.69995,15.9,5.7,0,10.2-3.1,13.30005-6.8Z"/><path class="b" d="M1440.3,52c4.4-8.6,12-15.2,24.5-15.2,13,0,19.8,6.2,22.19995,15.9h1c4.2-8.1,11.5-15.9,23.80005-15.9,14.9,0,23.69995,7.8,23.69995,22.7a50.40046,50.40046,0,0,1-1,8.7l-4.9,26.9c-.5,2.8-1.1,7.6,3.1,7.6a11.48727,11.48727,0,0,0,6-1.6l-2.30005,15.9c-3.4,1.3-11,2.4-15.19995,2.4-11,0-15.7-5.3-15.7-13.8a34.92784,34.92784,0,0,1,.6-6.5L1511.4,68.2a27.46088,27.46088,0,0,0,.5-5.7c0-5.7-2.4-9.1-8.7-9.1-6.8,0-14.9,6.5-18,25.6l-6.6,38.7h-23.19995l8.69995-49.6a27.59792,27.59792,0,0,0,.6-5.7c0-5.7-2.3-9.1-8.6-9.1-7.1,0-14.69995,6.5-18.3,25.6L1431,117.6h-23.3l10-57.2c.5-3.2.8-7.1-3.6-7.1a8.99191,8.99191,0,0,0-5.5,1.5L1410.4,38.9A52.44942,52.44942,0,0,1,1425.1,36.6c10.19995,0,14.4,5.7,14.4,11.7a21.85494,21.85494,0,0,1-.3,3.6Z"/><path class="b" d="M1590.8,36.8c24,0,35.5,13.1,35.5,32.1,0,29.2-15.1,50.5-44.1,50.5-24.1,0-35.3-13-35.3-31.8C1546.9,58.3,1561.4,36.8,1590.8,36.8Zm11.6,32c0-10.5-4.4-15.4-12-15.4-13,0-19.9,11.8-19.9,34,0,10.5,4.5,15.2,11.80005,15.2C1595.1,102.7,1602.4,91.4,1602.4,68.8Z"/><path class="b" d="M1666.9,52c4.4-7.8,10.69995-15.2,24-15.2,13.4,0,26.69995,9.1,26.69995,30.1,0,38.2-21.9,52.5-39.19995,52.5-9.7,0-15.1-3.9-18.5-8.4h-1L1652.1,150.2h-23.30005l16-89.6c.5-3.2.80005-7.1-3.69995-7.1a8.99191,8.99191,0,0,0-5.5,1.5L1637.4,39.1A56.35079,56.35079,0,0,1,1652.1,36.8c10.19995,0,14.30005,5.7,14.30005,11.7a21.855,21.855,0,0,1-.30005,3.6Zm-5.2,44.4a12.802,12.802,0,0,0,11,6.3c10.4,0,20.9-9.7,20.9-34,0-9.9-4.5-15.2-11.8-15.2-7,0-13.80005,7-15.9,19.1Z"/></svg>
